<svg width="20" height="10" viewBox="0 0 20 10" fill="none" xmlns="http://www.w3.org/2000/svg">
<path fill-rule="evenodd" clip-rule="evenodd" d="M5.28 9.28066C5.13938 9.42111 4.94875 9.5 4.75 9.5C4.55125 9.5 4.36062 9.42111 4.22 9.28066L0.469999 5.53066C0.32955 5.39003 0.25066 5.19941 0.25066 5.00066C0.25066 4.80191 0.32955 4.61129 0.469999 4.47066L4.22 0.720659C4.28866 0.646973 4.37146 0.587871 4.46346 0.546879C4.55546 0.505887 4.65477 0.483846 4.75548 0.482069C4.85618 0.480292 4.95621 0.498816 5.0496 0.536537C5.14299 0.574258 5.22782 0.630404 5.29904 0.701622C5.37026 0.77284 5.4264 0.857675 5.46412 0.951063C5.50184 1.04445 5.52037 1.14448 5.51859 1.24518C5.51681 1.34589 5.49477 1.4452 5.45378 1.5372C5.41279 1.6292 5.35369 1.712 5.28 1.78066L2.81 4.25066L19 4.25066C19.1989 4.25066 19.3897 4.32968 19.5303 4.47033C19.671 4.61098 19.75 4.80175 19.75 5.00066C19.75 5.19957 19.671 5.39034 19.5303 5.53099C19.3897 5.67164 19.1989 5.75066 19 5.75066L2.81 5.75066L5.28 8.22066C5.42045 8.36129 5.49934 8.55191 5.49934 8.75066C5.49934 8.94941 5.42045 9.14003 5.28 9.28066Z" fill="#3B85AC"/>
</svg>
