<svg width="18" height="19" viewBox="0 0 18 19" fill="none" xmlns="http://www.w3.org/2000/svg">
<path d="M8.99971 7.75046C10.4909 7.75046 11.6997 6.54163 11.6997 5.05046C11.6997 3.5593 10.4909 2.35046 8.99971 2.35046C7.50854 2.35046 6.29971 3.5593 6.29971 5.05046C6.29971 6.54163 7.50854 7.75046 8.99971 7.75046Z" fill="#3B85AC"/>
<path d="M3.11836 13.5946C2.94297 14.0519 3.09962 14.5643 3.48649 14.8646C5.00961 16.0467 6.92252 16.7505 8.99981 16.7505C11.0792 16.7505 12.9939 16.0453 14.5178 14.861C14.9045 14.5605 15.0608 14.0479 14.8851 13.5908C13.9768 11.2276 11.6855 9.55046 9.00247 9.55046C6.31799 9.55046 4.02567 11.2295 3.11836 13.5946Z" fill="#3B85AC"/>
</svg>
