<svg width="22" height="22" viewBox="0 0 22 22" fill="none" xmlns="http://www.w3.org/2000/svg">
<path d="M11.0003 3.66699C11.9728 3.66699 12.9054 4.0533 13.5931 4.74093C14.2807 5.42857 14.667 6.3612 14.667 7.33366C14.667 8.30612 14.2807 9.23875 13.5931 9.92638C12.9054 10.614 11.9728 11.0003 11.0003 11.0003C10.0279 11.0003 9.09523 10.614 8.4076 9.92638C7.71997 9.23875 7.33366 8.30612 7.33366 7.33366C7.33366 6.3612 7.71997 5.42857 8.4076 4.74093C9.09523 4.0533 10.0279 3.66699 11.0003 3.66699ZM11.0003 5.50033C10.5141 5.50033 10.0478 5.69348 9.70396 6.0373C9.36015 6.38111 9.16699 6.84743 9.16699 7.33366C9.16699 7.81989 9.36015 8.2862 9.70396 8.63002C10.0478 8.97384 10.5141 9.16699 11.0003 9.16699C11.4866 9.16699 11.9529 8.97384 12.2967 8.63002C12.6405 8.2862 12.8337 7.81989 12.8337 7.33366C12.8337 6.84743 12.6405 6.38111 12.2967 6.0373C11.9529 5.69348 11.4866 5.50033 11.0003 5.50033ZM11.0003 11.917C13.4478 11.917 18.3337 13.1362 18.3337 15.5837V18.3337H3.66699V15.5837C3.66699 13.1362 8.55283 11.917 11.0003 11.917ZM11.0003 13.6587C8.27783 13.6587 5.40866 14.997 5.40866 15.5837V16.592H16.592V15.5837C16.592 14.997 13.7228 13.6587 11.0003 13.6587Z" fill="#1386B0"/>
</svg>
