<svg width="20" height="20" viewBox="0 0 20 20" fill="none" xmlns="http://www.w3.org/2000/svg">
<path fill-rule="evenodd" clip-rule="evenodd" d="M1.00026 9.99937H2.38926V16.9994C2.38926 17.132 2.44194 17.2592 2.53571 17.3529C2.62947 17.4467 2.75665 17.4994 2.88926 17.4994H16.1103C16.2429 17.4994 16.37 17.4467 16.4638 17.3529C16.5576 17.2592 16.6103 17.132 16.6103 16.9994V9.99937H18.0003C18.1018 9.99922 18.2008 9.96819 18.2842 9.91039C18.3677 9.8526 18.4316 9.77078 18.4674 9.67581C18.5032 9.58084 18.5093 9.47722 18.4848 9.37872C18.4603 9.28022 18.4064 9.1915 18.3303 9.12437L9.83026 1.62437C9.73901 1.54421 9.62171 1.5 9.50026 1.5C9.3788 1.5 9.2615 1.54421 9.17026 1.62437L0.670258 9.12437C0.594134 9.1915 0.540244 9.28022 0.515752 9.37872C0.49126 9.47722 0.497325 9.58084 0.533143 9.67581C0.56896 9.77078 0.632832 9.8526 0.71627 9.91039C0.799708 9.96819 0.898759 9.99922 1.00026 9.99937ZM2.88926 8.99937H2.32226L9.50026 2.66637L16.6783 8.99937H16.1113C15.9787 8.99937 15.8515 9.05205 15.7577 9.14581C15.6639 9.23958 15.6113 9.36676 15.6113 9.49937V16.4994H3.39026V9.49937C3.39026 9.36676 3.33758 9.23958 3.24381 9.14581C3.15004 9.05205 3.02287 8.99937 2.89026 8.99937H2.88926Z" fill="#FFFFFF"/>
<path fill-rule="evenodd" clip-rule="evenodd" d="M10.708 11.5H8.20801C7.94279 11.5 7.68844 11.6054 7.5009 11.7929C7.31336 11.9804 7.20801 12.2348 7.20801 12.5V16.5C7.20801 16.7652 7.31336 17.0196 7.5009 17.2071C7.68844 17.3946 7.94279 17.5 8.20801 17.5H10.708C10.9732 17.5 11.2276 17.3946 11.4151 17.2071C11.6027 17.0196 11.708 16.7652 11.708 16.5V12.5C11.708 12.2348 11.6027 11.9804 11.4151 11.7929C11.2276 11.6054 10.9732 11.5 10.708 11.5ZM8.20801 16.5V12.5H10.708V16.5H8.20801Z" fill="#FFFFFF"/>
</svg>
