<svg width="16" height="17" viewBox="0 0 16 17" fill="none" xmlns="http://www.w3.org/2000/svg">
<path d="M11.4287 1.7168H4.57157C3.94039 1.7168 3.42871 2.22847 3.42871 2.85965V8.57394C3.42871 9.20512 3.94039 9.7168 4.57157 9.7168H11.4287C12.0599 9.7168 12.5716 9.20512 12.5716 8.57394V2.85965C12.5716 2.22847 12.0599 1.7168 11.4287 1.7168Z" stroke="#B6BEC9" stroke-linecap="round" stroke-linejoin="round"/>
<path d="M3.42843 5.14453H1.71415C1.41104 5.14453 1.12035 5.26494 0.906024 5.47927C0.691697 5.69359 0.571289 5.98428 0.571289 6.28739V11.4302C0.571289 11.7333 0.691697 12.024 0.906024 12.2384C1.12035 12.4527 1.41104 12.5731 1.71415 12.5731H14.2856C14.5887 12.5731 14.8794 12.4527 15.0937 12.2384C15.308 12.024 15.4284 11.7333 15.4284 11.4302V6.28739C15.4284 5.98428 15.308 5.69359 15.0937 5.47927C14.8794 5.26494 14.5887 5.14453 14.2856 5.14453H12.5713M4.57129 12.5731L3.99986 15.4302M11.4284 12.5731L11.9999 15.4302" stroke="#B6BEC9" stroke-linecap="round" stroke-linejoin="round"/>
</svg>
