<svg width="16" height="17" viewBox="0 0 16 17" fill="none" xmlns="http://www.w3.org/2000/svg">
<path d="M8.6 7.20898C8.2 7.10898 7.8 6.90898 7.5 6.60898C7.2 6.50898 7.1 6.20898 7.1 6.00898C7.1 5.80898 7.2 5.50898 7.4 5.40898C7.7 5.20898 8 5.00898 8.3 5.10898C8.9 5.10898 9.4 5.40898 9.7 5.80898L10.6 4.60898C10.3 4.30898 10 4.10898 9.7 3.90898C9.4 3.70898 9 3.60898 8.6 3.60898V2.20898H7.4V3.60898C6.9 3.70898 6.4 4.00898 6 4.40898C5.6 4.90898 5.3 5.50898 5.4 6.10898C5.4 6.70898 5.6 7.30898 6 7.70898C6.5 8.20898 7.2 8.50898 7.8 8.80898C8.1 8.90899 8.5 9.10898 8.8 9.30898C9 9.50898 9.1 9.80898 9.1 10.109C9.1 10.409 9 10.709 8.8 11.009C8.5 11.309 8.1 11.409 7.8 11.409C7.4 11.409 6.9 11.309 6.6 11.009C6.3 10.809 6 10.509 5.8 10.209L4.8 11.309C5.1 11.709 5.4 12.009 5.8 12.309C6.3 12.609 6.9 12.909 7.5 12.909V14.209H8.6V12.709C9.2 12.609 9.7 12.309 10.1 11.909C10.6 11.409 10.9 10.609 10.9 9.90898C10.9 9.30898 10.7 8.60898 10.2 8.20898C9.7 7.70898 9.2 7.40898 8.6 7.20898ZM8 0.208984C3.6 0.208984 0 3.80898 0 8.20898C0 12.609 3.6 16.209 8 16.209C12.4 16.209 16 12.609 16 8.20898C16 3.80898 12.4 0.208984 8 0.208984ZM8 15.109C4.2 15.109 1.1 12.009 1.1 8.20898C1.1 4.40898 4.2 1.30898 8 1.30898C11.8 1.30898 14.9 4.40898 14.9 8.20898C14.9 12.009 11.8 15.109 8 15.109Z" fill="#B6BEC9"/>
</svg>
