<svg width="20" height="21" viewBox="0 0 20 21" fill="none" xmlns="http://www.w3.org/2000/svg">
<path fill-rule="evenodd" clip-rule="evenodd" d="M9.13885 5.24279L10.2055 4.17612C11.0642 3.31612 12.5722 2.72012 14.0695 2.50546C14.7334 2.40203 15.4085 2.39306 16.0748 2.47879C16.6655 2.56679 17.0268 2.74012 17.1948 2.90946C17.3642 3.07746 17.5375 3.43879 17.6255 4.02945C17.7108 4.59879 17.7042 5.29612 17.5989 6.03479C17.3855 7.53212 16.7882 9.04012 15.9282 9.89879L10.0002 15.8281L8.47218 14.3001C8.41029 14.2381 8.33679 14.189 8.25588 14.1554C8.17498 14.1218 8.08825 14.1045 8.00065 14.1044C7.91306 14.1044 7.82631 14.1215 7.74535 14.155C7.6644 14.1885 7.59083 14.2376 7.52885 14.2995C7.40367 14.4245 7.33327 14.5941 7.33314 14.771C7.33308 14.8586 7.35028 14.9453 7.38374 15.0263C7.4172 15.1072 7.46629 15.1808 7.52818 15.2428L9.52818 17.2428C9.59011 17.3049 9.66368 17.3541 9.74467 17.3877C9.82566 17.4213 9.91249 17.4386 10.0002 17.4386C10.0879 17.4386 10.1747 17.4213 10.2557 17.3877C10.3367 17.3541 10.4103 17.3049 10.4722 17.2428L11.2015 16.5121L12.7615 19.1135C12.8135 19.2006 12.8848 19.2746 12.9697 19.3301C13.0547 19.3855 13.1512 19.4208 13.2519 19.4332C13.3526 19.4457 13.4548 19.435 13.5507 19.402C13.6467 19.369 13.7338 19.3146 13.8055 19.2428L16.4722 16.5761C16.5454 16.5028 16.6005 16.4134 16.6332 16.315C16.6658 16.2166 16.675 16.112 16.6602 16.0095L16.0402 11.6735L16.8722 10.8428C18.0122 9.70145 18.6828 7.87612 18.9188 6.22279C19.0388 5.38679 19.0522 4.55612 18.9442 3.83079C18.8375 3.12679 18.6028 2.43079 18.1388 1.96546C17.6735 1.50146 16.9775 1.26546 16.2722 1.16012C15.4781 1.05558 14.6731 1.06456 13.8815 1.18679C12.2268 1.42012 10.4002 2.09079 9.26152 3.23079L8.43085 4.06279L4.09485 3.44279C3.99228 3.42792 3.88766 3.43717 3.78929 3.46981C3.69093 3.50244 3.60152 3.55756 3.52818 3.63079L0.861515 6.29745C0.78974 6.36916 0.735277 6.4563 0.702274 6.55223C0.669271 6.64817 0.6586 6.75037 0.671073 6.85106C0.683546 6.95174 0.718835 7.04825 0.77425 7.13324C0.829665 7.21822 0.903746 7.28943 0.990848 7.34145L3.59085 8.90145L2.86152 9.63079C2.79943 9.69272 2.75017 9.76628 2.71657 9.84728C2.68296 9.92827 2.66566 10.0151 2.66566 10.1028C2.66566 10.1905 2.68296 10.2773 2.71657 10.3583C2.75017 10.4393 2.79943 10.5129 2.86152 10.5748L4.86152 12.5748C4.9235 12.6368 4.99709 12.6859 5.07807 12.7195C5.15906 12.753 5.24586 12.7703 5.33352 12.7703C5.42117 12.7703 5.50797 12.753 5.58896 12.7195C5.66995 12.6859 5.74353 12.6368 5.80552 12.5748C5.8675 12.5128 5.91667 12.4392 5.95021 12.3582C5.98376 12.2772 6.00102 12.1904 6.00102 12.1028C6.00102 12.0151 5.98376 11.9283 5.95021 11.8473C5.91667 11.7664 5.8675 11.6928 5.80552 11.6308L4.27618 10.1041L5.13885 9.24279L9.13885 5.24279ZM13.4655 17.6961L12.1722 15.5401L14.8615 12.8521L15.2935 15.8681L13.4668 17.6948L13.4655 17.6961ZM4.56418 7.93079L7.25218 5.24279L4.23618 4.81079L2.40952 6.63745L4.56418 7.93079ZM3.13752 13.9095C3.1995 13.8476 3.24868 13.7741 3.28226 13.6932C3.31584 13.6122 3.33316 13.5255 3.33322 13.4379C3.33328 13.3503 3.31609 13.2636 3.28262 13.1826C3.24916 13.1017 3.20008 13.0281 3.13818 12.9661C3.07629 12.9041 3.00279 12.855 2.92188 12.8214C2.84098 12.7878 2.75425 12.7705 2.66665 12.7704C2.57906 12.7704 2.49231 12.7875 2.41135 12.821C2.3304 12.8545 2.25683 12.9036 2.19485 12.9655L0.861515 14.2988C0.73651 14.424 0.666353 14.5937 0.666478 14.7706C0.666603 14.9475 0.737 15.1171 0.862182 15.2421C0.987364 15.3671 1.15708 15.4373 1.33399 15.4372C1.5109 15.437 1.68051 15.3666 1.80552 15.2415L3.13885 13.9081L3.13752 13.9095ZM5.13752 15.9095C5.20119 15.848 5.25198 15.7744 5.28692 15.6931C5.32186 15.6117 5.34025 15.5242 5.34102 15.4357C5.34178 15.3472 5.32492 15.2594 5.2914 15.1775C5.25788 15.0956 5.20837 15.0211 5.14578 14.9585C5.08318 14.8959 5.00875 14.8464 4.92682 14.8129C4.84489 14.7794 4.7571 14.7625 4.66858 14.7633C4.58006 14.7641 4.49258 14.7824 4.41125 14.8174C4.32991 14.8523 4.25635 14.9031 4.19485 14.9668L1.52818 17.6335C1.40318 17.7586 1.33302 17.9284 1.33314 18.1053C1.33327 18.2822 1.40367 18.4518 1.52885 18.5768C1.65403 18.7018 1.82374 18.7719 2.00065 18.7718C2.17756 18.7717 2.34718 18.7013 2.47218 18.5761L5.13885 15.9095H5.13752ZM7.13752 17.9095C7.1995 17.8476 7.24868 17.7741 7.28226 17.6932C7.31584 17.6122 7.33316 17.5255 7.33322 17.4379C7.33328 17.3503 7.31609 17.2636 7.28262 17.1826C7.24916 17.1017 7.20008 17.0281 7.13818 16.9661C7.07629 16.9041 7.00279 16.855 6.92188 16.8214C6.84098 16.7878 6.75425 16.7705 6.66665 16.7704C6.57906 16.7704 6.49231 16.7875 6.41135 16.821C6.3304 16.8545 6.25683 16.9036 6.19485 16.9655L4.86152 18.2988C4.73651 18.424 4.66635 18.5937 4.66648 18.7706C4.6666 18.9475 4.737 19.1171 4.86218 19.2421C4.98736 19.3671 5.15708 19.4373 5.33399 19.4372C5.5109 19.437 5.68051 19.3666 5.80552 19.2415L7.13885 17.9081L7.13752 17.9095ZM12.6668 9.10145C13.1085 9.10145 13.5321 8.926 13.8444 8.61369C14.1567 8.30138 14.3322 7.8778 14.3322 7.43612C14.3322 6.99445 14.1567 6.57086 13.8444 6.25855C13.5321 5.94624 13.1085 5.77079 12.6668 5.77079C12.2252 5.77079 11.8016 5.94624 11.4893 6.25855C11.177 6.57086 11.0015 6.99445 11.0015 7.43612C11.0015 7.8778 11.177 8.30138 11.4893 8.61369C11.8016 8.926 12.2252 9.10145 12.6668 9.10145Z" fill="#B6BEC9"/>
</svg>
